HIERARCHY
ROOT root     
{
	OFFSET 0.0000 0.0000 0.0000
	CHANNELS 6 Xposition Yposition Zposition Zrotation Yrotation Xrotation
	JOINT pelvis   
	{
		OFFSET 0.0000 0.0000 0.0000
		CHANNELS 3 Zrotation Yrotation Xrotation
		JOINT thorax   
		{
			OFFSET 0.0000 23.0750 -5.0000
			CHANNELS 3 Zrotation Yrotation Xrotation
			JOINT rclavicle
			{
				OFFSET 0.0000 28.0009 0.0000
				CHANNELS 3 Zrotation Yrotation Xrotation
				JOINT rhumerus 
				{
					OFFSET -18.5725 5.5939 0.0000
					CHANNELS 3 Zrotation Yrotation Xrotation
					JOINT rradius  
					{
						OFFSET -24.8459 0.0000 0.0000
						CHANNELS 3 Zrotation Yrotation Xrotation
						JOINT rhand    
						{
							OFFSET -24.5477 0.0000 0.0000
							CHANNELS 3 Zrotation Yrotation Xrotation
							End Site
							{
								OFFSET -8.1826 0.0000 0.0000
							}
						}
					}
				}
			}
			JOINT lclavicle
			{
				OFFSET 0.0000 28.0009 0.0000
				CHANNELS 3 Zrotation Yrotation Xrotation
				JOINT lhumerus 
				{
					OFFSET 18.5725 5.5939 0.0000
					CHANNELS 3 Zrotation Yrotation Xrotation
					JOINT lradius  
					{
						OFFSET 24.8459 0.0000 0.0000
						CHANNELS 3 Zrotation Yrotation Xrotation
						JOINT lhand    
						{
							OFFSET 24.5477 0.0000 0.0000
							CHANNELS 3 Zrotation Yrotation Xrotation
							End Site
							{
								OFFSET 8.1826 0.0000 0.0000
							}
						}
					}
				}
			}
			JOINT head     
			{
				OFFSET 0.0000 35.2030 0.0000
				CHANNELS 3 Zrotation Yrotation Xrotation
				End Site
				{
					OFFSET 0.0000 11.7343 0.0000
				}
			}
		}
		JOINT rfemur   
		{
			OFFSET -8.2817 0.0000 0.0000
			CHANNELS 3 Zrotation Yrotation Xrotation
			JOINT rtibia   
			{
				OFFSET 0.0000 -43.3627 0.0000
				CHANNELS 3 Zrotation Yrotation Xrotation
				JOINT rfoot    
				{
					OFFSET 0.0000 -38.2947 0.0000
					CHANNELS 3 Zrotation Yrotation Xrotation
					JOINT rtoes    
					{
						OFFSET 0.0000 0.0000 16.6054
						CHANNELS 3 Zrotation Yrotation Xrotation
						End Site
						{
							OFFSET 0.0000 0.0000 5.5351
						}
					}
				}
			}
		}
		JOINT lfemur   
		{
			OFFSET 8.2817 0.0000 0.0000
			CHANNELS 3 Zrotation Yrotation Xrotation
			JOINT ltibia   
			{
				OFFSET 0.0000 -43.3627 0.0000
				CHANNELS 3 Zrotation Yrotation Xrotation
				JOINT lfoot    
				{
					OFFSET 0.0000 -38.2947 0.0000
					CHANNELS 3 Zrotation Yrotation Xrotation
					JOINT ltoes    
					{
						OFFSET 0.0000 0.0000 16.6054
						CHANNELS 3 Zrotation Yrotation Xrotation
						End Site
						{
							OFFSET 0.0000 0.0000 5.5351
						}
					}
				}
			}
		}
	}
}
MOTION
Frames: 18
Frame Time: .0333333
30.382 86.7 6.2663 -176.559 -63.2641 -172.773 0 -0 0 8.22072 -21.4261 -12.0714 14.5354 -5.14735 -4.62031e-06 63.2552 46.6786 3.55399 -180 56.8583 -180 -18.9979 20.932 -3.54084 -14.0955 -3.41095 -7.88886e-06 -45.0427 -23.804 -7.20331 0 -10.0307 -0 -3.78441 12.7149 -0.421802 8.19172 13.5347 9.14901 -4.79798 9.89287 -12.917 -0 -0 3.6985 1.05491e-05 6.31029 12.4017 1.3605 2.93446e-06 -42.1296 -2.26438 37.4625 -5.78309 -0 -0 2.77085 2.10381e-05 11.6668 5.94161 1.22444 -7.86671e-07 -26.8918 
30.401 86.688 6.2654 -176.722 -62.8493 -172.574 0 -0 0 7.93923 -20.8389 -11.9837 14.345 -5.15514 7.6015e-06 62.2099 46.3896 2.33092 -180 56.4236 -180 -19.1636 20.7487 -3.54028 -15.0984 -2.73647 -8.46822e-06 -45.5951 -22.6954 -6.58287 0 -12.7598 -0 -5.451 13.8091 -0.660588 7.85249 13.0509 8.7364 -4.90123 10.0683 -13.1278 -0 -0 3.84432 -1.77523e-05 6.53885 12.3533 1.40482 1.12592e-05 -42.2039 -2.38962 37.6185 -5.95298 -0 -0 3.06388 -1.8808e-05 11.8667 5.77864 1.21206 2.92323e-07 -26.8074 
30.43 86.68 6.2599 -176.864 -62.507 -172.38 0 -0 0 7.64749 -20.2538 -11.931 14.1842 -5.17934 1.07861e-05 61.1319 46.099 1.07085 -180 55.9946 -180 -19.334 20.563 -3.53966 -15.9143 -2.07668 3.97205e-07 -46.0319 -21.6799 -5.76905 8.52774e-08 -15.6365 -6.21078e-07 -6.99711 14.8828 -0.91501 7.52017 12.5779 8.40533 -4.99099 10.2128 -13.34 -0 -0 3.97744 1.00593e-05 6.72737 12.3152 1.44119 -3.29554e-06 -42.2534 -2.51362 37.7323 -6.16232 -0 -0 3.36991 -1.65767e-05 12.0458 5.62368 1.19796 -1.87243e-05 -26.7227 
30.469 86.674 6.2489 -176.981 -62.2488 -172.201 0 -0 0 7.35909 -19.6877 -11.9099 14.0483 -5.22894 -3.27891e-05 60.0677 45.8142 -0.17991 -180 55.5767 -180 -19.4939 20.387 -3.5383 -16.5519 -1.44276 -7.46255e-06 -46.3558 -20.7298 -4.76708 0 -18.7087 -0 -8.26612 15.9378 -1.15913 7.17978 12.1401 8.16119 -5.06305 10.3233 -13.5369 -0 -0 4.08679 1.85472e-05 6.87153 12.2896 1.46924 -2.71857e-05 -42.2885 -2.62728 37.7967 -6.39621 -0 -0 3.67748 -1.04344e-05 12.202 5.4793 1.18293 -1.23598e-06 -26.6418 
30.513 86.67 6.2334 -177.071 -62.0809 -172.043 0 -0 0 7.08123 -19.1552 -11.9189 13.9389 -5.29894 -3.37373e-05 59.0331 45.5387 -1.39926 -180 55.1776 -180 -19.649 20.2112 -3.53558 -17.0042 -0.830292 -8.34719e-06 -46.6095 -19.918 -3.76158 0 -21.8355 -0 -9.12524 16.8488 -1.35423 6.82562 11.7602 8.0076 -5.11482 10.3945 -13.7093 -0 -0 4.16631 -4.47203e-05 6.97096 12.2753 1.48921 1.18877e-05 -42.3035 -2.72355 37.7973 -6.63957 -0 -0 3.97264 4.71607e-06 12.3421 5.3499 1.16871 7.01232e-06 -26.5591 
30.56 86.669 6.2136 -177.132 -62.0035 -171.914 0 -0 0 6.82094 -18.6699 -11.9513 13.8514 -5.38908 8.99701e-06 58.0546 45.2806 -2.55766 -180 54.7978 -180 -19.7937 20.0439 -3.53211 -17.2907 -0.243896 -2.44948e-07 -46.7944 -19.2236 -2.77689 1.44595e-07 -25.0611 -6.50583e-07 -9.50506 17.6091 -1.4755 6.45213 11.4521 7.93651 -5.14463 10.426 -13.8451 -0 -0 4.21145 -2.86557e-05 7.02544 12.2746 1.50075 -6.74348e-06 -42.2999 -2.79581 37.7305 -6.8766 -0 -0 4.24309 1.06321e-05 12.4685 5.23808 1.15641 -7.83806e-06 -26.4743 
30.609 86.669 6.1902 -177.168 -62.0169 -171.815 0 -0 0 6.58036 -18.2368 -11.9992 13.783 -5.49495 2.71268e-05 57.149 45.0391 -3.63835 -180 54.4354 -180 -19.9271 19.8838 -3.5274 -17.435 0.312896 6.25002e-07 -46.9119 -18.6337 -1.85479 0 -28.4096 -0 -9.37476 18.1878 -1.50382 6.05971 11.2263 7.93454 -5.15269 10.419 -13.9393 -0 -0 4.22092 -1.50403e-05 7.03703 12.2852 1.50458 4.52568e-06 -42.2812 -2.83992 37.5949 -7.09325 -0 -0 4.47784 -6.77526e-06 12.5845 5.14597 1.1471 4.27197e-06 -26.3896 
30.657 86.671 6.1641 -177.18 -62.1114 -171.75 0 -0 0 6.35917 -17.8593 -12.0562 13.7304 -5.60744 7.26785e-06 56.32 44.8119 -4.63932 -180 54.0866 -180 -20.049 19.731 -3.52161 -17.4632 0.823398 1.25424e-06 -46.9525 -18.1172 -1.04161 1.9555e-07 -31.9168 -6.83836e-07 -8.7456 18.5544 -1.4313 5.65534 11.0809 7.98708 -5.1409 10.3763 -13.9904 -0 -0 4.19716 -2.22011e-05 7.01028 12.3045 1.50112 1.08814e-05 -42.2521 -2.85446 37.396 -7.27877 -0 -0 4.66895 -1.66677e-06 12.6939 5.07449 1.14139 -1.77961e-07 -26.301 
30.702 86.673 6.1359 -177.168 -62.2747 -171.72 0 -0 0 6.15417 -17.5347 -12.1114 13.6881 -5.72405 4.58674e-06 55.5766 44.5967 -5.55387 -180 53.7469 -180 -20.1585 19.5936 -3.51605 -17.4139 1.31152 -3.26501e-06 -46.9044 -17.6952 -0.338382 0 -35.5885 -0 -7.6537 18.662 -1.2594 5.24857 11.0102 8.07266 -5.11097 10.3045 -13.9976 -0 -0 4.14311 1.36825e-05 6.94835 12.3317 1.49087 -1.27051e-05 -42.214 -2.84011 37.1427 -7.42626 -0 -0 4.81103 -1.39633e-05 12.794 5.02401 1.1393 9.42011e-06 -26.2141 
30.746 86.675 6.1066 -177.139 -62.4974 -171.72 0 -0 0 5.9605 -17.2528 -12.16 13.6543 -5.83695 -1.03661e-05 54.9108 44.3879 -6.39091 -180 53.4103 -180 -20.2592 19.4713 -3.51157 -17.3095 1.7778 2.85303e-06 -46.7621 -17.3698 0.227767 0 -39.414 -0 -6.17723 18.4559 -1.00451 4.85388 10.9995 8.17554 -5.06633 10.21 -13.9658 -0 -0 4.06508 -7.14158e-06 6.85757 12.3622 1.4749 3.80421e-06 -42.1671 -2.80044 36.8491 -7.53361 -0 -0 4.90265 -7.45023e-06 12.8839 4.99358 1.14059 -2.16211e-06 -26.1292 
30.786 86.676 6.0771 -177.095 -62.7616 -171.748 0 -0 0 5.77201 -17.0037 -12.1998 13.627 -5.93388 2.12062e-06 54.3116 44.1716 -7.16205 -180 53.0734 -180 -20.3509 19.3632 -3.50779 -17.1714 2.19393 -5.09394e-06 -46.5244 -17.1061 0.612433 0 -43.3942 -0 -4.45296 17.9595 -0.703982 4.48667 11.0311 8.28578 -5.01031 10.0983 -13.9034 -0 -0 3.97093 -1.00687e-05 6.7454 12.3964 1.45451 2.11444e-06 -42.1167 -2.74066 36.5327 -7.60208 -0 -0 4.94489 -2.13386e-05 12.96 4.98252 1.1451 8.17152e-06 -26.0507 
30.825 86.678 6.0479 -177.039 -63.0525 -171.798 0 -0 0 5.58356 -16.7754 -12.2281 13.6058 -6.01137 3.16858e-05 53.7704 43.9445 -7.87882 -180 52.7292 -180 -20.437 19.2737 -3.50627 -17.0114 2.57557 -2.99962e-07 -46.2057 -16.9379 0.815205 0 -47.4819 -0 -2.61735 17.1823 -0.395503 4.16162 11.0854 8.39449 -4.9461 9.97628 -13.8201 -0 -0 3.86649 -2.1159e-05 6.61768 12.4314 1.43065 -9.67244e-06 -42.0609 -2.66665 36.2114 -7.63696 -0 -0 4.94215 8.44009e-06 13.0178 4.98939 1.1519 1.23484e-06 -25.98 
30.862 86.678 6.0194 -176.973 -63.3551 -171.865 0 -0 0 5.39182 -16.5547 -12.2476 13.5911 -6.06651 2.06427e-05 53.273 43.7022 -8.55172 -180 52.3788 -180 -20.5151 19.2059 -3.50748 -16.8328 2.93141 -6.16178e-06 -45.8274 -16.8885 0.834439 0 -51.6268 -0 -0.812903 16.1925 -0.115604 3.89045 11.1444 8.4999 -4.87639 9.84981 -13.7237 -0 -0 3.75793 3.3174e-05 6.48066 12.4673 1.40474 1.29477e-05 -42.0027 -2.58512 35.9031 -7.64613 -0 -0 4.90045 -2.07016e-05 13.049 5.01195 1.16 4.79646e-06 -25.9236 
30.899 86.678 5.9919 -176.901 -63.6595 -171.941 0 -0 0 5.1943 -16.3292 -12.2616 13.5841 -6.09713 -2.50536e-07 52.815 43.4419 -9.18373 -180 52.0256 -180 -20.5849 19.1627 -3.51155 -16.6313 3.25932 -8.33613e-06 -45.4244 -16.9655 0.671878 0 -55.7854 -0 0.856309 15.0728 0.113304 3.68091 11.1929 8.60699 -4.80336 9.72245 -13.6234 -0 -0 3.64936 2.16318e-05 6.33964 12.5024 1.37768 -1.37329e-05 -41.9363 -2.50232 35.6244 -7.63887 -0 -0 4.82772 7.80585e-06 13.0516 5.04812 1.1686 2.01475e-06 -25.8824 
30.937 86.679 5.9657 -176.824 -63.9588 -172.021 0 -0 0 4.99185 -16.0927 -12.2773 13.5878 -6.10245 -1.64029e-05 52.3856 43.1687 -9.78011 -180 51.6729 -180 -20.6427 19.1438 -3.51811 -16.4011 3.55511 -1.43767e-05 -45.0206 -17.1664 0.340769 6.01565e-07 -59.9224 -1.04359e-06 2.34793 13.9313 0.286897 3.53612 11.2231 8.72508 -4.72887 9.59618 -13.5281 -0 -0 3.54376 -2.96565e-05 6.19951 12.5371 1.35081 1.462e-05 -41.8652 -2.42381 35.3841 -7.62509 -0 -0 4.73188 1.15445e-05 13.0195 5.0965 1.1767 -3.2159e-06 -25.8593 
30.976 86.679 5.9408 -176.744 -64.2445 -172.096 0 -0 0 4.7857 -15.839 -12.3025 13.6005 -6.08969 3.03699e-05 51.9873 42.8905 -10.3353 -180 51.3267 -180 -20.6863 19.1515 -3.52719 -16.1278 3.83819 5.12358e-06 -44.6631 -17.5224 -0.135095 5.15308e-07 -63.9719 -8.2512e-07 3.65048 12.7742 0.408799 3.45449 11.2295 8.86489 -4.6546 9.47122 -13.4444 -0 -0 3.44135 -1.87786e-05 6.06314 12.5721 1.32446 -8.13153e-06 -41.7855 -2.35496 35.1903 -7.61589 -0 -0 4.62165 -2.47053e-05 12.9494 5.15335 1.18315 -1.5157e-05 -25.8555 
31.017 86.679 5.9173 -176.662 -64.5212 -172.164 0 -0 0 4.57927 -15.5702 -12.343 13.6267 -6.06226 -8.74521e-06 51.6192 42.6136 -10.8449 -180 50.9977 -180 -20.709 19.1888 -3.53805 -15.8087 4.10511 1.01963e-05 -44.3755 -18.024 -0.740146 0 -67.9068 -0 4.79521 11.6421 0.489186 3.43037 11.2146 9.03859 -4.5812 9.34576 -13.3751 -0 -0 3.34167 -2.40445e-05 5.93262 12.6073 1.2994 4.04577e-06 -41.6933 -2.29872 35.0433 -7.61863 -0 -0 4.50412 2.59272e-05 12.8435 5.21664 1.18752 9.28845e-06 -25.8728 
31.058 86.679 5.8952 -176.579 -64.7857 -172.221 0 -0 0 4.37759 -15.29 -12.408 13.6683 -6.02169 2.01015e-05 51.2853 42.3542 -11.2977 -180 50.6965 -180 -20.7082 19.2505 -3.54958 -15.4474 4.32865 1.73246e-05 -44.1511 -18.6276 -1.45338 1.10302e-06 -71.7178 -7.97272e-07 5.88483 10.5514 0.543906 3.45276 11.1868 9.26025 -4.50893 9.21684 -13.3196 -0 -0 3.24245 1.53964e-05 5.80943 12.6447 1.27592 1.21528e-05 -41.5939 -2.25605 34.9385 -7.63788 -0 -0 4.38531 1.31783e-06 12.7019 5.28516 1.18939 -1.0955e-05 -25.9062 
